<?xml version="1.0" standalone="no"?>
<!DOCTYPE svg PUBLIC "-//W3C//DTD SVG 20010904//EN"
 "http://www.w3.org/TR/2001/REC-SVG-20010904/DTD/svg10.dtd">
<svg version="1.0" xmlns="http://www.w3.org/2000/svg"
 width="520.000000pt" height="520.000000pt" viewBox="0 0 520.000000 520.000000"
 preserveAspectRatio="xMidYMid meet">
<metadata>
Created by potrace 1.11, written by Peter Selinger 2001-2013
</metadata>
<g transform="translate(0.000000,520.000000) scale(0.100000,-0.100000)"
fill="#000000" stroke="none">
<path d="M1997 5166 c-107 -40 -118 -82 -61 -241 71 -197 86 -250 89 -320 3
-70 -10 -122 -38 -149 -21 -21 -102 -52 -212 -82 -149 -39 -189 -64 -228 -139
-43 -84 -28 -229 58 -575 14 -58 28 -114 30 -125 3 -11 23 -92 46 -180 22 -88
42 -167 44 -175 2 -8 24 -96 50 -195 25 -99 47 -189 49 -200 19 -106 121 -205
210 -205 26 0 51 12 98 48 133 100 199 135 282 151 64 12 131 -3 233 -51 151
-70 225 -54 293 65 63 109 81 178 85 322 3 105 -9 204 -63 495 -61 326 -69
384 -73 506 -2 72 -24 155 -52 198 -47 71 -138 103 -312 111 -232 11 -282 24
-297 80 -8 31 -3 191 7 235 3 14 8 39 11 55 3 17 11 55 19 85 39 153 20 231
-68 277 -41 21 -154 26 -200 9z m473 -931 c87 -19 130 -61 161 -158 27 -83 31
-206 8 -252 -14 -29 -16 -30 -69 -25 -30 2 -122 4 -205 4 -128 0 -166 -5 -258
-27 -148 -37 -161 -36 -191 12 -31 48 -65 160 -69 228 -7 92 37 141 163 182
117 39 360 58 460 36z m180 -702 c32 -29 64 -107 75 -183 4 -24 8 -47 10 -50
2 -3 6 -29 10 -58 8 -68 -7 -106 -48 -125 -157 -71 -396 -137 -493 -137 -52 0
-101 19 -127 48 -21 23 -87 284 -90 352 -2 44 -1 45 43 67 25 12 59 25 75 28
62 12 202 34 250 40 28 3 61 8 75 10 14 3 41 7 60 10 19 3 51 10 70 14 54 14
58 13 90 -16z"/>
<path d="M3638 5092 c-42 -28 -67 -62 -78 -106 -40 -159 -134 -350 -216 -442
-11 -12 -41 -45 -68 -75 -66 -72 -92 -116 -121 -203 -30 -90 -31 -110 -6 -135
25 -25 79 -19 181 21 132 52 392 229 509 347 104 105 111 168 43 401 -35 119
-60 165 -101 188 -47 27 -107 28 -143 4z"/>
<path d="M543 4485 c-101 -30 -195 -113 -240 -212 -49 -106 -13 -196 94 -236
25 -10 103 -26 173 -37 144 -22 166 -29 305 -95 206 -98 280 -124 372 -132 57
-5 63 -4 88 21 23 23 26 32 20 64 -4 20 -10 39 -13 42 -4 3 -27 30 -52 60
-121 149 -396 425 -470 472 -94 60 -191 78 -277 53z"/>
<path d="M3322 3843 c-33 -6 -53 -43 -46 -81 5 -27 24 -43 113 -103 251 -170
438 -302 618 -436 341 -254 367 -266 438 -196 63 62 123 258 110 358 -22 171
-212 292 -565 358 -14 3 -86 17 -160 31 -307 58 -460 79 -508 69z"/>
<path d="M1157 3556 c-20 -8 -45 -20 -55 -27 -39 -31 -348 -352 -435 -453 -17
-19 -250 -267 -288 -307 -9 -9 -34 -41 -55 -71 -86 -119 -89 -143 -34 -225
109 -165 249 -232 358 -175 87 45 147 131 288 410 220 435 343 788 295 846
-16 19 -24 19 -74 2z"/>
<path d="M2470 2563 c-38 -13 -80 -35 -86 -45 -4 -7 -7 -73 -6 -147 0 -74 -4
-143 -9 -153 -9 -17 -33 -24 -124 -33 -71 -7 -204 -24 -240 -30 -155 -27 -261
-47 -266 -50 -3 -2 -21 -7 -40 -10 -139 -24 -438 -119 -849 -270 -261 -96
-257 -95 -382 -99 -168 -7 -236 -56 -274 -201 -33 -123 1 -228 89 -273 46 -24
116 -31 176 -18 50 11 152 66 294 160 264 173 452 266 752 374 113 40 334 108
415 128 162 39 253 57 336 66 169 19 201 0 219 -133 8 -57 11 -78 20 -119 7
-31 12 -59 25 -130 6 -30 12 -64 14 -75 10 -50 38 -202 42 -225 3 -14 11 -61
19 -105 9 -44 20 -107 26 -140 6 -33 15 -80 20 -105 5 -25 16 -88 24 -140 21
-128 23 -135 35 -199 48 -250 110 -361 202 -361 84 0 115 73 105 249 -4 58 -8
115 -10 126 -3 11 -8 47 -11 80 -6 51 -47 308 -62 385 -2 14 -11 63 -20 110
-8 47 -17 92 -19 100 -4 12 -28 135 -51 260 -2 14 -7 39 -11 55 -9 40 -8 33
-18 90 -5 28 -9 52 -10 55 -11 43 -28 168 -28 213 0 86 28 111 140 122 32 3
74 8 93 10 186 23 531 24 700 1 143 -19 351 -74 485 -129 16 -6 98 -46 180
-89 176 -89 246 -112 320 -105 81 8 122 31 187 105 61 69 148 262 148 327 0
39 -22 90 -42 97 -24 9 -200 12 -923 12 -628 1 -864 -4 -1005 -19 -19 -2 -94
-7 -167 -11 l-131 -7 -24 26 c-14 14 -47 73 -76 131 -62 127 -79 146 -129 145
-21 0 -45 -3 -53 -6z"/>
<path d="M3444 1516 c-14 -38 70 -178 196 -327 25 -29 62 -73 84 -98 173 -205
255 -286 328 -326 72 -39 153 -40 232 -1 73 36 96 66 96 126 0 95 -45 197
-114 257 -45 40 -316 203 -467 280 -135 69 -202 93 -286 100 -53 5 -64 3 -69
-11z"/>
<path d="M1868 1430 c-24 -15 -81 -65 -128 -110 -47 -45 -139 -131 -205 -190
-238 -213 -321 -316 -347 -430 -33 -144 -2 -274 72 -313 109 -57 270 38 396
233 81 126 213 409 276 590 66 195 40 288 -64 220z"/>
</g>
</svg>
